<svg width="136" height="44" viewBox="0 0 136 44" fill="none" xmlns="http://www.w3.org/2000/svg">
<path d="M39.0675 12.724H44.9875V13.748H39.0675V12.724ZM39.1955 18.5H38.0115V7.3H45.6915V8.324H39.1955V18.5ZM51.0873 18.58C50.3726 18.58 49.7486 18.4467 49.2153 18.18C48.6819 17.9133 48.2659 17.5133 47.9673 16.98C47.6793 16.4467 47.5353 15.78 47.5353 14.98V10.1H48.6713V14.852C48.6713 15.748 48.8899 16.4253 49.3273 16.884C49.7753 17.332 50.3993 17.556 51.1993 17.556C51.7859 17.556 52.2926 17.4387 52.7193 17.204C53.1566 16.9587 53.4873 16.6067 53.7113 16.148C53.9459 15.6893 54.0633 15.14 54.0633 14.5V10.1H55.1993V18.5H54.1112V16.196L54.2873 16.612C54.0206 17.2307 53.6046 17.716 53.0393 18.068C52.4846 18.4093 51.8339 18.58 51.0873 18.58ZM62.6533 10.02C63.3359 10.02 63.9333 10.1533 64.4453 10.42C64.9679 10.676 65.3733 11.0707 65.6613 11.604C65.9599 12.1373 66.1093 12.8093 66.1093 13.62V18.5H64.9733V13.732C64.9733 12.8467 64.7493 12.18 64.3013 11.732C63.8639 11.2733 63.2453 11.044 62.4453 11.044C61.8479 11.044 61.3253 11.1667 60.8773 11.412C60.4399 11.6467 60.0986 11.9933 59.8533 12.452C59.6186 12.9 59.5013 13.444 59.5013 14.084V18.5H58.3653V10.1H59.4533V12.404L59.2773 11.972C59.5439 11.364 59.9706 10.8893 60.5573 10.548C61.1439 10.196 61.8426 10.02 62.6533 10.02ZM69.4178 18.5V7.3H74.2498C75.4978 7.3 76.4631 7.55067 77.1458 8.052C77.8391 8.55333 78.1858 9.26267 78.1858 10.18C78.1858 10.788 78.0418 11.3 77.7538 11.716C77.4764 12.132 77.0924 12.4467 76.6018 12.66C76.1218 12.8733 75.5938 12.98 75.0178 12.98L75.2898 12.596C76.0044 12.596 76.6178 12.708 77.1298 12.932C77.6524 13.1453 78.0578 13.4707 78.3458 13.908C78.6338 14.3347 78.7778 14.868 78.7778 15.508C78.7778 16.4573 78.4258 17.1933 77.7218 17.716C77.0284 18.2387 75.9778 18.5 74.5698 18.5H69.4178ZM70.6018 17.524H74.5538C75.5351 17.524 76.2871 17.3587 76.8098 17.028C77.3324 16.6867 77.5938 16.148 77.5938 15.412C77.5938 14.6867 77.3324 14.1587 76.8098 13.828C76.2871 13.4867 75.5351 13.316 74.5538 13.316H70.4738V12.34H74.1698C75.0658 12.34 75.7591 12.1693 76.2498 11.828C76.7511 11.4867 77.0017 10.98 77.0017 10.308C77.0017 9.62533 76.7511 9.11867 76.2498 8.788C75.7591 8.44667 75.0658 8.276 74.1698 8.276H70.6018V17.524ZM81.2403 18.5V10.1H82.3763V18.5H81.2403ZM81.8163 8.244C81.5816 8.244 81.3843 8.164 81.2243 8.004C81.0643 7.844 80.9843 7.652 80.9843 7.428C80.9843 7.204 81.0643 7.01733 81.2243 6.868C81.3843 6.708 81.5816 6.628 81.8163 6.628C82.0509 6.628 82.2483 6.70267 82.4083 6.852C82.5683 7.00133 82.6483 7.188 82.6483 7.412C82.6483 7.64667 82.5683 7.844 82.4083 8.004C82.2589 8.164 82.0616 8.244 81.8163 8.244ZM88.1931 18.58C87.4038 18.58 86.7958 18.3667 86.3691 17.94C85.9425 17.5133 85.7291 16.9107 85.7291 16.132V8.244H86.8651V16.068C86.8651 16.5587 86.9878 16.9373 87.2331 17.204C87.4891 17.4707 87.8518 17.604 88.3211 17.604C88.8225 17.604 89.2385 17.46 89.5691 17.172L89.9691 17.988C89.7451 18.1907 89.4731 18.34 89.1531 18.436C88.8438 18.532 88.5238 18.58 88.1931 18.58ZM84.2251 11.044V10.1H89.4251V11.044H84.2251ZM95.3083 18.58C94.4336 18.58 93.6656 18.3987 93.0043 18.036C92.3429 17.6627 91.8256 17.156 91.4523 16.516C91.0789 15.8653 90.8923 15.124 90.8923 14.292C90.8923 13.46 91.0683 12.724 91.4203 12.084C91.7829 11.444 92.2736 10.9427 92.8923 10.58C93.5216 10.2067 94.2256 10.02 95.0043 10.02C95.7936 10.02 96.4923 10.2013 97.1003 10.564C97.7189 10.916 98.2043 11.4173 98.5563 12.068C98.9083 12.708 99.0843 13.4493 99.0843 14.292C99.0843 14.3453 99.0789 14.404 99.0683 14.468C99.0683 14.5213 99.0683 14.58 99.0683 14.644H91.7563V13.796H98.4603L98.0123 14.132C98.0123 13.524 97.8789 12.9853 97.6123 12.516C97.3563 12.036 97.0043 11.6627 96.5563 11.396C96.1083 11.1293 95.5909 10.996 95.0043 10.996C94.4283 10.996 93.9109 11.1293 93.4523 11.396C92.9936 11.6627 92.6363 12.036 92.3803 12.516C92.1243 12.996 91.9963 13.5453 91.9963 14.164V14.34C91.9963 14.98 92.1349 15.5453 92.4123 16.036C92.7003 16.516 93.0949 16.8947 93.5963 17.172C94.1083 17.4387 94.6896 17.572 95.3403 17.572C95.8523 17.572 96.3269 17.4813 96.7643 17.3C97.2123 17.1187 97.5963 16.8413 97.9163 16.468L98.5563 17.204C98.1829 17.652 97.7136 17.9933 97.1483 18.228C96.5936 18.4627 95.9803 18.58 95.3083 18.58Z" fill="#FF8C42"/>
<path d="M0.672 29.172C0.896 29.1827 1.18933 29.1933 1.552 29.204C1.91467 29.2147 2.272 29.22 2.624 29.22C3.12533 29.22 3.60533 29.2147 4.064 29.204C4.52267 29.1933 4.848 29.188 5.04 29.188C5.904 29.188 6.61867 29.3107 7.184 29.556C7.76 29.8013 8.18667 30.1373 8.464 30.564C8.752 30.98 8.896 31.4493 8.896 31.972C8.896 32.292 8.832 32.6333 8.704 32.996C8.576 33.3587 8.352 33.7 8.032 34.02C7.72267 34.34 7.296 34.6067 6.752 34.82C6.208 35.0227 5.52 35.124 4.688 35.124H3.152V34.804H4.528C5.28533 34.804 5.86133 34.6867 6.256 34.452C6.66133 34.2067 6.93333 33.8867 7.072 33.492C7.22133 33.0867 7.296 32.6387 7.296 32.148C7.296 31.3053 7.09333 30.6547 6.688 30.196C6.29333 29.7267 5.61067 29.492 4.64 29.492C4.14933 29.492 3.82933 29.5827 3.68 29.764C3.53067 29.9453 3.456 30.3133 3.456 30.868V38.804C3.456 39.188 3.488 39.476 3.552 39.668C3.616 39.86 3.73867 39.988 3.92 40.052C4.112 40.116 4.38933 40.1587 4.752 40.18V40.5C4.50667 40.4787 4.19733 40.468 3.824 40.468C3.46133 40.4573 3.09333 40.452 2.72 40.452C2.304 40.452 1.91467 40.4573 1.552 40.468C1.18933 40.468 0.896 40.4787 0.672 40.5V40.18C1.03467 40.1587 1.30667 40.116 1.488 40.052C1.68 39.988 1.808 39.86 1.872 39.668C1.936 39.476 1.968 39.188 1.968 38.804V30.868C1.968 30.4733 1.936 30.1853 1.872 30.004C1.808 29.812 1.68 29.684 1.488 29.62C1.30667 29.5453 1.03467 29.5027 0.672 29.492V29.172ZM3.216 34.852C3.792 34.8733 4.24533 34.9 4.576 34.932C4.90667 34.9533 5.17333 34.9747 5.376 34.996C5.58933 35.0173 5.792 35.044 5.984 35.076C6.69867 35.1933 7.21067 35.412 7.52 35.732C7.84 36.0413 8.07467 36.5267 8.224 37.188L8.624 38.82C8.73067 39.2893 8.83733 39.6307 8.944 39.844C9.06133 40.0467 9.23733 40.1427 9.472 40.132C9.65333 40.1213 9.80267 40.0627 9.92 39.956C10.048 39.8493 10.1813 39.7053 10.32 39.524L10.56 39.7C10.336 40.0307 10.1013 40.2867 9.856 40.468C9.62133 40.6387 9.28533 40.724 8.848 40.724C8.45333 40.724 8.10667 40.6067 7.808 40.372C7.50933 40.1373 7.28533 39.6787 7.136 38.996L6.784 37.396C6.688 36.9373 6.576 36.5427 6.448 36.212C6.33067 35.8707 6.16 35.604 5.936 35.412C5.72267 35.22 5.40267 35.124 4.976 35.124H3.248L3.216 34.852ZM20.967 32.036C21.9057 32.036 22.6363 32.324 23.159 32.9C23.6923 33.4653 23.959 34.3507 23.959 35.556H18.311L18.295 35.252H22.423C22.4443 34.7293 22.4017 34.2493 22.295 33.812C22.1883 33.364 22.0177 33.0067 21.783 32.74C21.559 32.4733 21.2657 32.34 20.903 32.34C20.4123 32.34 19.975 32.5853 19.591 33.076C19.2177 33.5667 18.9937 34.3453 18.919 35.412L18.967 35.476C18.9457 35.636 18.9297 35.812 18.919 36.004C18.9083 36.196 18.903 36.388 18.903 36.58C18.903 37.3053 19.0203 37.9293 19.255 38.452C19.4897 38.9747 19.7937 39.3747 20.167 39.652C20.551 39.9187 20.9457 40.052 21.351 40.052C21.671 40.052 21.975 40.004 22.263 39.908C22.551 39.8013 22.8177 39.6307 23.063 39.396C23.3083 39.1613 23.5217 38.8467 23.703 38.452L24.023 38.58C23.9057 38.932 23.7137 39.2733 23.447 39.604C23.1803 39.9347 22.8443 40.2067 22.439 40.42C22.0337 40.6227 21.5643 40.724 21.031 40.724C20.263 40.724 19.6017 40.548 19.047 40.196C18.503 39.844 18.0817 39.3587 17.783 38.74C17.495 38.1107 17.351 37.3907 17.351 36.58C17.351 35.6413 17.5003 34.836 17.799 34.164C18.0977 33.4813 18.519 32.9587 19.063 32.596C19.607 32.2227 20.2417 32.036 20.967 32.036ZM34.2767 32.036C34.7034 32.036 35.0661 32.1053 35.3647 32.244C35.6634 32.3827 35.8821 32.5107 36.0207 32.628C36.3727 32.916 36.5861 32.724 36.6607 32.052H37.0287C37.0074 32.3507 36.9914 32.708 36.9807 33.124C36.9701 33.5293 36.9647 34.0787 36.9647 34.772H36.5967C36.5327 34.3773 36.4207 33.9933 36.2607 33.62C36.1114 33.2467 35.8874 32.9427 35.5887 32.708C35.2901 32.4627 34.9007 32.34 34.4207 32.34C34.0474 32.34 33.7327 32.4467 33.4767 32.66C33.2314 32.8627 33.1087 33.1667 33.1087 33.572C33.1087 33.892 33.2047 34.1693 33.3967 34.404C33.5887 34.628 33.8394 34.8413 34.1487 35.044C34.4581 35.236 34.7941 35.4493 35.1567 35.684C35.5621 35.94 35.9301 36.2013 36.2607 36.468C36.5914 36.7347 36.8527 37.028 37.0447 37.348C37.2474 37.668 37.3487 38.0467 37.3487 38.484C37.3487 38.9747 37.2207 39.3853 36.9647 39.716C36.7087 40.0467 36.3727 40.2973 35.9567 40.468C35.5514 40.6387 35.1034 40.724 34.6127 40.724C34.3781 40.724 34.1541 40.7027 33.9407 40.66C33.7381 40.628 33.5407 40.5747 33.3487 40.5C33.2421 40.4467 33.1301 40.3827 33.0127 40.308C32.9061 40.2333 32.7994 40.1533 32.6927 40.068C32.5861 39.9827 32.4901 39.988 32.4047 40.084C32.3194 40.1693 32.2554 40.3453 32.2127 40.612H31.8447C31.8661 40.2707 31.8821 39.8547 31.8927 39.364C31.9034 38.8733 31.9087 38.2227 31.9087 37.412H32.2767C32.3514 38.0093 32.4581 38.532 32.5967 38.98C32.7354 39.428 32.9541 39.78 33.2527 40.036C33.5514 40.2813 33.9674 40.404 34.5007 40.404C34.7141 40.404 34.9274 40.356 35.1407 40.26C35.3647 40.164 35.5514 40.004 35.7007 39.78C35.8501 39.556 35.9247 39.2573 35.9247 38.884C35.9247 38.4147 35.7541 38.0307 35.4127 37.732C35.0714 37.4333 34.6394 37.1187 34.1167 36.788C33.7327 36.5427 33.3701 36.2973 33.0287 36.052C32.6981 35.8067 32.4261 35.5293 32.2127 35.22C32.0101 34.9107 31.9087 34.5373 31.9087 34.1C31.9087 33.62 32.0154 33.2307 32.2287 32.932C32.4527 32.6227 32.7461 32.3987 33.1087 32.26C33.4714 32.1107 33.8607 32.036 34.2767 32.036ZM47.385 29.604V32.276H49.753V32.596H47.385V38.788C47.385 39.2893 47.4757 39.6413 47.657 39.844C47.8383 40.0467 48.089 40.148 48.409 40.148C48.729 40.148 49.0063 40.02 49.241 39.764C49.4757 39.4973 49.6783 39.0547 49.849 38.436L50.169 38.516C50.0623 39.1347 49.849 39.6573 49.529 40.084C49.2197 40.5107 48.7397 40.724 48.089 40.724C47.7263 40.724 47.4277 40.676 47.193 40.58C46.9583 40.4947 46.7503 40.3667 46.569 40.196C46.3343 39.9507 46.169 39.6573 46.073 39.316C45.9877 38.9747 45.945 38.5213 45.945 37.956V32.596H44.409V32.276H45.945V29.828C46.2117 29.8173 46.4677 29.796 46.713 29.764C46.9583 29.732 47.1823 29.6787 47.385 29.604ZM58.9772 40.612C58.5399 40.612 58.1612 40.532 57.8412 40.372C57.5212 40.2013 57.2759 39.9667 57.1052 39.668C56.9452 39.3693 56.8652 39.0227 56.8652 38.628C56.8652 38.1587 56.9719 37.7747 57.1852 37.476C57.4092 37.1773 57.6919 36.9373 58.0332 36.756C58.3746 36.5747 58.7319 36.4253 59.1052 36.308C59.4892 36.18 59.8519 36.0627 60.1932 35.956C60.5346 35.8387 60.8119 35.7053 61.0252 35.556C61.2492 35.4067 61.3612 35.2093 61.3612 34.964V33.972C61.3612 33.524 61.2919 33.1827 61.1532 32.948C61.0252 32.7133 60.8492 32.5587 60.6252 32.484C60.4012 32.3987 60.1506 32.356 59.8732 32.356C59.6066 32.356 59.3186 32.3933 59.0092 32.468C58.7106 32.5427 58.4706 32.6973 58.2892 32.932C58.4919 32.9747 58.6679 33.0813 58.8172 33.252C58.9666 33.4227 59.0412 33.6413 59.0412 33.908C59.0412 34.1747 58.9559 34.388 58.7852 34.548C58.6146 34.6973 58.3959 34.772 58.1292 34.772C57.8199 34.772 57.5906 34.676 57.4412 34.484C57.3026 34.2813 57.2332 34.0573 57.2332 33.812C57.2332 33.5347 57.3026 33.3107 57.4412 33.14C57.5799 32.9693 57.7559 32.8093 57.9692 32.66C58.2146 32.4893 58.5292 32.3453 58.9132 32.228C59.3079 32.1 59.7506 32.036 60.2412 32.036C60.6786 32.036 61.0519 32.0893 61.3612 32.196C61.6706 32.292 61.9266 32.436 62.1292 32.628C62.4066 32.884 62.5879 33.1987 62.6732 33.572C62.7586 33.9347 62.8012 34.372 62.8012 34.884V39.332C62.8012 39.5987 62.8386 39.7907 62.9132 39.908C62.9986 40.0253 63.1266 40.084 63.2972 40.084C63.4146 40.084 63.5266 40.0573 63.6332 40.004C63.7399 39.9507 63.8679 39.8653 64.0172 39.748L64.1932 40.02C63.9692 40.1907 63.7559 40.3347 63.5532 40.452C63.3506 40.5587 63.0786 40.612 62.7372 40.612C62.4279 40.612 62.1719 40.5587 61.9692 40.452C61.7666 40.3453 61.6119 40.1907 61.5052 39.988C61.4092 39.7747 61.3612 39.508 61.3612 39.188C61.0732 39.668 60.7266 40.0253 60.3212 40.26C59.9266 40.4947 59.4786 40.612 58.9772 40.612ZM59.5532 39.972C59.9052 39.972 60.2306 39.8707 60.5292 39.668C60.8386 39.4653 61.1159 39.1613 61.3612 38.756V35.62C61.2332 35.8013 61.0466 35.956 60.8012 36.084C60.5559 36.2013 60.2892 36.324 60.0012 36.452C59.7132 36.5693 59.4359 36.7133 59.1692 36.884C58.9132 37.044 58.6999 37.2573 58.5292 37.524C58.3586 37.7907 58.2732 38.1373 58.2732 38.564C58.2732 38.9907 58.3852 39.332 58.6092 39.588C58.8439 39.844 59.1586 39.972 59.5532 39.972ZM78.178 32.084V38.772C78.178 39.252 78.2633 39.6093 78.434 39.844C78.6153 40.068 78.9353 40.18 79.394 40.18V40.516C79.0633 40.484 78.7327 40.468 78.402 40.468C78.0927 40.468 77.794 40.484 77.506 40.516C77.2287 40.548 76.9727 40.6067 76.738 40.692V38.804C76.4713 39.4973 76.0927 39.9933 75.602 40.292C75.122 40.58 74.626 40.724 74.114 40.724C73.7407 40.724 73.4153 40.6707 73.138 40.564C72.8607 40.4573 72.6313 40.308 72.45 40.116C72.2473 39.9027 72.1087 39.6253 72.034 39.284C71.9593 38.9427 71.922 38.5213 71.922 38.02V34.004C71.922 33.524 71.8367 33.172 71.666 32.948C71.4953 32.7133 71.1753 32.596 70.706 32.596V32.26C71.0473 32.292 71.378 32.308 71.698 32.308C72.0073 32.308 72.3007 32.292 72.578 32.26C72.866 32.2173 73.1273 32.1587 73.362 32.084V38.372C73.362 38.7027 73.3833 39.0067 73.426 39.284C73.4687 39.5613 73.5753 39.7853 73.746 39.956C73.9167 40.1267 74.194 40.212 74.578 40.212C74.994 40.212 75.362 40.084 75.682 39.828C76.0127 39.572 76.2687 39.2253 76.45 38.788C76.642 38.3507 76.738 37.86 76.738 37.316V34.004C76.738 33.524 76.6527 33.172 76.482 32.948C76.3113 32.7133 75.9913 32.596 75.522 32.596V32.26C75.8633 32.292 76.194 32.308 76.514 32.308C76.8233 32.308 77.1167 32.292 77.394 32.26C77.682 32.2173 77.9433 32.1587 78.178 32.084ZM91.4269 32.036C91.7149 32.036 91.9655 32.0947 92.1789 32.212C92.4029 32.3293 92.5735 32.484 92.6909 32.676C92.8189 32.8573 92.8829 33.0653 92.8829 33.3C92.8829 33.5667 92.7975 33.8013 92.6269 34.004C92.4669 34.2067 92.2482 34.308 91.9709 34.308C91.7469 34.308 91.5495 34.2387 91.3789 34.1C91.2082 33.9507 91.1229 33.7427 91.1229 33.476C91.1229 33.2733 91.1762 33.1027 91.2829 32.964C91.4002 32.8147 91.5282 32.6973 91.6669 32.612C91.5922 32.5053 91.4802 32.452 91.3309 32.452C91.0002 32.452 90.6962 32.5533 90.4189 32.756C90.1415 32.948 89.9069 33.1987 89.7149 33.508C89.5229 33.8173 89.3735 34.148 89.2669 34.5C89.1602 34.8413 89.1069 35.1613 89.1069 35.46V38.852C89.1069 39.3747 89.2562 39.7267 89.5549 39.908C89.8642 40.0787 90.2802 40.164 90.8029 40.164V40.5C90.5575 40.4893 90.2109 40.4787 89.7629 40.468C89.3149 40.4467 88.8402 40.436 88.3389 40.436C87.9762 40.436 87.6135 40.4467 87.2509 40.468C86.8989 40.4787 86.6322 40.4893 86.4509 40.5V40.164C86.8882 40.164 87.1975 40.084 87.3789 39.924C87.5709 39.764 87.6669 39.46 87.6669 39.012V34.004C87.6669 33.524 87.5815 33.172 87.4109 32.948C87.2402 32.7133 86.9202 32.596 86.4509 32.596V32.26C86.7922 32.292 87.1229 32.308 87.4429 32.308C87.7522 32.308 88.0455 32.292 88.3229 32.26C88.6109 32.2173 88.8722 32.1587 89.1069 32.084V34.084C89.2242 33.7747 89.3895 33.4653 89.6029 33.156C89.8269 32.836 90.0935 32.5693 90.4029 32.356C90.7122 32.1427 91.0535 32.036 91.4269 32.036ZM102.088 40.612C101.651 40.612 101.272 40.532 100.952 40.372C100.632 40.2013 100.387 39.9667 100.216 39.668C100.056 39.3693 99.9759 39.0227 99.9759 38.628C99.9759 38.1587 100.083 37.7747 100.296 37.476C100.52 37.1773 100.803 36.9373 101.144 36.756C101.485 36.5747 101.843 36.4253 102.216 36.308C102.6 36.18 102.963 36.0627 103.304 35.956C103.645 35.8387 103.923 35.7053 104.136 35.556C104.36 35.4067 104.472 35.2093 104.472 34.964V33.972C104.472 33.524 104.403 33.1827 104.264 32.948C104.136 32.7133 103.96 32.5587 103.736 32.484C103.512 32.3987 103.261 32.356 102.984 32.356C102.717 32.356 102.429 32.3933 102.12 32.468C101.821 32.5427 101.581 32.6973 101.4 32.932C101.603 32.9747 101.779 33.0813 101.928 33.252C102.077 33.4227 102.152 33.6413 102.152 33.908C102.152 34.1747 102.067 34.388 101.896 34.548C101.725 34.6973 101.507 34.772 101.24 34.772C100.931 34.772 100.701 34.676 100.552 34.484C100.413 34.2813 100.344 34.0573 100.344 33.812C100.344 33.5347 100.413 33.3107 100.552 33.14C100.691 32.9693 100.867 32.8093 101.08 32.66C101.325 32.4893 101.64 32.3453 102.024 32.228C102.419 32.1 102.861 32.036 103.352 32.036C103.789 32.036 104.163 32.0893 104.472 32.196C104.781 32.292 105.037 32.436 105.24 32.628C105.517 32.884 105.699 33.1987 105.784 33.572C105.869 33.9347 105.912 34.372 105.912 34.884V39.332C105.912 39.5987 105.949 39.7907 106.024 39.908C106.109 40.0253 106.237 40.084 106.408 40.084C106.525 40.084 106.637 40.0573 106.744 40.004C106.851 39.9507 106.979 39.8653 107.128 39.748L107.304 40.02C107.08 40.1907 106.867 40.3347 106.664 40.452C106.461 40.5587 106.189 40.612 105.848 40.612C105.539 40.612 105.283 40.5587 105.08 40.452C104.877 40.3453 104.723 40.1907 104.616 39.988C104.52 39.7747 104.472 39.508 104.472 39.188C104.184 39.668 103.837 40.0253 103.432 40.26C103.037 40.4947 102.589 40.612 102.088 40.612ZM102.664 39.972C103.016 39.972 103.341 39.8707 103.64 39.668C103.949 39.4653 104.227 39.1613 104.472 38.756V35.62C104.344 35.8013 104.157 35.956 103.912 36.084C103.667 36.2013 103.4 36.324 103.112 36.452C102.824 36.5693 102.547 36.7133 102.28 36.884C102.024 37.044 101.811 37.2573 101.64 37.524C101.469 37.7907 101.384 38.1373 101.384 38.564C101.384 38.9907 101.496 39.332 101.72 39.588C101.955 39.844 102.269 39.972 102.664 39.972ZM119.401 32.036C119.806 32.036 120.142 32.0893 120.409 32.196C120.686 32.3027 120.915 32.452 121.097 32.644C121.299 32.8573 121.443 33.124 121.529 33.444C121.614 33.764 121.657 34.196 121.657 34.74V39.012C121.657 39.46 121.747 39.764 121.929 39.924C122.121 40.084 122.435 40.164 122.873 40.164V40.5C122.691 40.4893 122.414 40.4787 122.041 40.468C121.667 40.4467 121.305 40.436 120.953 40.436C120.601 40.436 120.254 40.4467 119.913 40.468C119.582 40.4787 119.331 40.4893 119.161 40.5V40.164C119.545 40.164 119.817 40.084 119.977 39.924C120.137 39.764 120.217 39.46 120.217 39.012V34.388C120.217 34.0573 120.19 33.7533 120.137 33.476C120.083 33.1987 119.961 32.9747 119.769 32.804C119.587 32.6333 119.305 32.548 118.921 32.548C118.473 32.548 118.078 32.676 117.737 32.932C117.406 33.188 117.145 33.54 116.953 33.988C116.771 34.4253 116.681 34.916 116.681 35.46V39.012C116.681 39.46 116.761 39.764 116.921 39.924C117.081 40.084 117.353 40.164 117.737 40.164V40.5C117.566 40.4893 117.31 40.4787 116.969 40.468C116.638 40.4467 116.297 40.436 115.945 40.436C115.593 40.436 115.23 40.4467 114.857 40.468C114.483 40.4787 114.206 40.4893 114.025 40.5V40.164C114.462 40.164 114.771 40.084 114.953 39.924C115.145 39.764 115.241 39.46 115.241 39.012V34.004C115.241 33.524 115.155 33.172 114.985 32.948C114.814 32.7133 114.494 32.596 114.025 32.596V32.26C114.366 32.292 114.697 32.308 115.017 32.308C115.326 32.308 115.619 32.292 115.897 32.26C116.185 32.2173 116.446 32.1587 116.681 32.084V33.972C116.958 33.2467 117.342 32.7453 117.833 32.468C118.334 32.18 118.857 32.036 119.401 32.036ZM132.388 29.604V32.276H134.756V32.596H132.388V38.788C132.388 39.2893 132.478 39.6413 132.66 39.844C132.841 40.0467 133.092 40.148 133.412 40.148C133.732 40.148 134.009 40.02 134.244 39.764C134.478 39.4973 134.681 39.0547 134.852 38.436L135.172 38.516C135.065 39.1347 134.852 39.6573 134.532 40.084C134.222 40.5107 133.742 40.724 133.092 40.724C132.729 40.724 132.43 40.676 132.196 40.58C131.961 40.4947 131.753 40.3667 131.572 40.196C131.337 39.9507 131.172 39.6573 131.076 39.316C130.99 38.9747 130.948 38.5213 130.948 37.956V32.596H129.412V32.276H130.948V29.828C131.214 29.8173 131.47 29.796 131.716 29.764C131.961 29.732 132.185 29.6787 132.388 29.604Z" fill="#6B8E23"/>
</svg>
